<?xml version="1.0" standalone="no"?>
<!DOCTYPE svg PUBLIC "-//W3C//DTD SVG 20010904//EN"
 "http://www.w3.org/TR/2001/REC-SVG-20010904/DTD/svg10.dtd">
<svg version="1.0" xmlns="http://www.w3.org/2000/svg"
 width="512.000000pt" height="512.000000pt" viewBox="0 0 512.000000 512.000000"
 preserveAspectRatio="xMidYMid meet">
<metadata>
Created by potrace 1.11, written by Peter Selinger 2001-2013
</metadata>
<g transform="translate(0.000000,512.000000) scale(0.100000,-0.100000)"
fill="#000000" stroke="none">
<path d="M2560 5011 c0 -7 -4 -9 -10 -6 -6 4 -7 -1 -3 -11 6 -15 7 -15 15 1 6
9 7 19 4 22 -3 4 -6 1 -6 -6z"/>
<path d="M2375 4990 c0 -8 6 -14 11 -13 6 1 11 -4 11 -11 0 -7 -6 -13 -13 -13
-7 0 -11 4 -8 9 3 4 0 8 -5 8 -6 0 -11 -6 -11 -12 0 -9 -4 -8 -10 2 -8 12 -13
13 -30 3 -24 -16 -30 -16 -30 -3 0 6 3 9 8 8 4 -2 7 1 7 7 0 5 -5 10 -12 11
-7 1 -12 -1 -12 -4 3 -19 -2 -32 -12 -32 -6 0 -9 7 -5 15 3 8 1 15 -4 15 -6 0
-10 -7 -10 -15 0 -8 -5 -15 -11 -15 -6 0 -8 9 -4 23 5 20 5 20 -9 -3 -11 -18
-11 -27 -3 -32 7 -4 -7 -6 -30 -3 -35 3 -47 0 -64 -18 -12 -12 -19 -16 -15 -9
10 18 -21 27 -40 11 -13 -11 -15 -11 -12 2 1 7 0 15 -5 17 -18 6 -27 0 -27
-18 0 -23 -35 -23 -52 1 -7 10 -9 8 -5 -12 2 -16 -1 -26 -9 -26 -7 0 -10 7 -6
16 5 13 3 14 -10 3 -14 -11 -30 -12 -78 0 -9 2 -14 -4 -14 -14 1 -11 -5 -18
-17 -18 -10 0 -21 -4 -24 -10 -3 -5 -11 -10 -17 -10 -6 0 -5 7 3 17 12 15 12
16 -1 7 -8 -5 -25 -9 -37 -9 -13 0 -29 -10 -37 -20 -15 -20 -15 -20 -16 0 -1
18 -2 18 -10 -3 -11 -26 -35 -38 -53 -26 -7 5 -5 1 5 -8 18 -16 17 -17 -21
-15 -22 1 -37 -1 -34 -6 2 -4 -7 -6 -21 -3 -14 3 -28 0 -32 -5 -3 -5 0 -8 7
-7 6 2 14 -3 16 -10 3 -7 -1 -10 -11 -6 -11 4 -14 0 -11 -16 4 -18 2 -20 -11
-9 -16 13 -16 13 -31 -15 -9 -16 -11 -16 -16 -2 -5 12 1 20 18 28 25 11 34 28
15 28 -5 0 -10 -5 -10 -11 0 -6 -7 -8 -16 -5 -10 4 -13 2 -8 -6 5 -7 2 -9 -8
-6 -11 5 -14 1 -10 -17 2 -12 -1 -26 -8 -30 -7 -4 -11 -1 -9 6 3 26 -1 39 -12
39 -8 0 -8 -5 1 -15 10 -12 10 -15 -4 -15 -9 0 -16 -5 -16 -11 0 -5 5 -7 12
-3 7 5 8 3 4 -5 -5 -7 -10 -10 -14 -7 -3 3 -11 -2 -19 -12 -13 -15 -13 -15 -3
6 6 12 7 22 2 22 -5 0 -14 -11 -20 -25 -6 -14 -16 -25 -22 -25 -6 0 -9 -4 -6
-8 3 -5 -1 -9 -9 -9 -22 0 -18 15 5 22 11 3 20 11 20 16 0 6 -7 6 -19 0 -10
-6 -22 -7 -26 -3 -3 4 -6 2 -5 -3 4 -19 0 -35 -9 -35 -6 0 -8 10 -6 21 3 12 1
19 -2 15 -13 -12 -13 -46 0 -46 6 0 4 -5 -6 -11 -9 -6 -14 -16 -11 -22 5 -9 4
-9 -6 0 -14 13 -43 6 -34 -8 3 -5 -2 -6 -10 -3 -9 3 -13 10 -10 15 3 5 -8 1
-25 -8 -16 -10 -27 -21 -25 -25 3 -5 -2 -8 -11 -8 -13 0 -14 -4 -5 -20 7 -14
7 -20 0 -20 -5 0 -10 6 -10 13 0 9 -2 9 -9 -1 -4 -7 -22 -14 -40 -14 -18 -1
-27 -4 -20 -8 8 -6 6 -13 -9 -26 -12 -10 -18 -22 -15 -27 3 -5 -5 -4 -17 3
-12 6 -24 9 -28 6 -3 -3 0 -6 6 -6 7 0 12 -6 12 -14 0 -9 -7 -12 -20 -9 -11 3
-26 0 -33 -6 -8 -6 -18 -7 -23 -3 -4 4 -2 -1 5 -10 12 -17 8 -23 -12 -19 -5 1
-6 -3 -2 -9 3 -6 10 -8 15 -5 5 3 12 0 16 -7 4 -7 4 -10 -1 -6 -10 9 -37 -11
-30 -22 7 -11 -22 -6 -32 5 -4 4 -2 5 6 0 10 -6 12 -4 7 4 -6 8 -12 9 -20 2
-7 -6 -17 -7 -21 -3 -5 4 -5 1 -1 -6 4 -7 11 -10 15 -8 4 3 13 -5 21 -17 12
-20 11 -21 -2 -9 -13 10 -18 8 -32 -13 -14 -21 -20 -23 -44 -15 l-27 10 25
-20 c19 -15 20 -18 6 -13 -13 4 -17 3 -12 -5 5 -8 2 -10 -8 -6 -9 3 -13 11 -9
18 3 6 2 7 -3 3 -5 -5 -9 -14 -9 -20 0 -7 -5 -12 -12 -12 -6 0 -14 -3 -18 -7
-9 -8 16 -5 32 5 6 4 15 3 18 -3 4 -6 3 -10 -2 -9 -20 3 -27 -2 -13 -12 12 -8
10 -9 -9 -4 -18 6 -22 4 -16 -6 5 -8 -2 -5 -14 6 -12 11 -22 15 -21 10 4 -20
0 -36 -8 -31 -5 3 -9 -1 -9 -9 0 -8 4 -12 9 -9 4 3 8 0 8 -7 0 -6 -8 -9 -18
-7 -12 4 -18 -1 -19 -13 -1 -11 4 -19 10 -20 7 0 2 -4 -11 -10 -14 -5 -20 -13
-16 -20 4 -8 3 -9 -5 -5 -9 6 -9 11 0 22 10 12 9 13 -5 8 -12 -5 -16 -14 -14
-29 3 -13 0 -22 -8 -22 -7 0 -10 5 -7 10 3 6 1 7 -6 3 -6 -4 -9 -12 -6 -17 4
-5 -1 -9 -10 -9 -10 0 -13 5 -9 12 5 7 3 8 -6 3 -10 -6 -10 -11 3 -20 22 -16
22 -26 0 -18 -16 6 -16 5 -4 -10 7 -9 10 -17 6 -17 -4 0 -1 -8 6 -17 13 -16
12 -17 -3 -4 -10 7 -15 17 -12 23 6 10 -41 6 -52 -5 -4 -3 3 -5 14 -2 11 2 23
-2 26 -10 7 -20 -5 -27 -22 -12 -13 11 -14 9 -2 -13 l13 -25 -23 20 -23 20 16
-25 c13 -21 14 -28 2 -43 -13 -17 -14 -17 -20 4 -6 17 -9 19 -16 8 -5 -8 -4
-18 1 -23 13 -13 13 -26 -1 -26 -5 0 -7 5 -4 10 3 6 1 10 -5 10 -6 0 -8 -11
-6 -24 3 -18 1 -23 -10 -19 -8 3 -11 10 -7 16 3 5 1 7 -5 3 -6 -3 -9 -18 -6
-31 2 -14 0 -25 -6 -25 -5 0 -10 5 -10 12 0 6 -2 9 -5 6 -10 -9 7 -38 18 -31
6 3 7 1 3 -5 -3 -6 -15 -9 -26 -7 -11 2 -19 -1 -17 -8 1 -7 -4 -11 -11 -9 -8
1 -11 -2 -8 -7 4 -5 0 -12 -6 -14 -10 -4 -10 -6 0 -6 7 -1 10 -5 7 -11 -3 -6
2 -8 12 -5 10 3 0 -4 -22 -16 -22 -11 -31 -18 -20 -16 15 3 21 -1 21 -14 0
-14 -3 -15 -14 -7 -19 16 -12 -13 8 -30 13 -11 11 -11 -8 -2 -12 6 -22 16 -22
23 0 7 -4 6 -10 -3 -5 -8 -10 -19 -10 -25 0 -5 5 -3 10 5 8 13 10 12 10 -3 0
-10 5 -15 11 -12 6 4 5 -2 -3 -14 -7 -12 -17 -21 -22 -21 -4 0 -3 7 4 15 11
13 10 14 -4 9 -11 -4 -16 -14 -13 -25 3 -12 0 -19 -10 -19 -8 0 -12 -4 -8 -10
3 -5 13 -6 22 -3 15 6 16 5 3 -9 -8 -9 -16 -12 -18 -7 -2 5 -11 9 -20 8 -11 0
-12 -2 -4 -6 19 -8 14 -41 -8 -48 -11 -4 -18 -10 -15 -15 3 -5 -3 -14 -12 -20
-16 -10 -16 -11 2 -5 34 11 58 15 51 7 -4 -4 -13 -7 -19 -7 -7 0 -13 -6 -13
-12 -1 -7 -3 -15 -4 -18 -1 -3 -3 -10 -4 -17 0 -6 -8 -13 -16 -15 -13 -4 -13
-3 0 6 13 9 13 11 -2 11 -19 0 -24 -15 -8 -25 6 -4 5 -11 -3 -19 -15 -18 -28
-10 -21 12 5 14 4 14 -4 2 -8 -10 -7 -19 1 -29 10 -12 8 -13 -12 -8 -18 4 -21
3 -13 -5 9 -9 19 -8 38 1 24 11 26 10 14 -3 -7 -9 -9 -16 -4 -16 5 0 1 -5 -9
-11 -9 -5 -21 -8 -26 -4 -5 3 -8 -3 -6 -12 2 -10 4 -22 5 -28 0 -5 7 -1 15 9
8 11 15 16 15 11 0 -5 -7 -17 -17 -27 -11 -12 -12 -18 -4 -18 8 0 7 -5 -4 -16
-12 -13 -19 -14 -30 -4 -9 7 -15 8 -15 2 0 -5 7 -12 15 -16 17 -6 20 -26 4
-26 -5 0 -7 6 -3 13 5 9 3 9 -7 -1 -10 -9 -11 -15 -3 -20 6 -4 11 -26 10 -49
0 -22 -4 -39 -9 -36 -4 2 -4 9 -1 15 4 7 2 8 -5 4 -6 -4 -9 -11 -6 -16 3 -5
-5 -16 -17 -24 -12 -9 -17 -16 -10 -16 6 0 12 -5 12 -11 0 -5 -5 -7 -12 -3 -7
4 -8 3 -4 -5 4 -6 11 -9 16 -6 5 3 7 -5 4 -17 -3 -13 -6 -40 -7 -60 -1 -21 -5
-38 -9 -38 -4 0 -8 -12 -8 -26 0 -14 4 -23 9 -20 5 4 4 -5 -2 -19 -7 -14 -16
-25 -20 -25 -4 0 -3 9 3 20 9 16 8 18 -5 14 -8 -3 -12 -10 -9 -15 3 -5 0 -9
-7 -9 -7 0 -4 -6 6 -14 11 -8 26 -11 35 -8 13 5 13 4 -1 -10 -10 -10 -15 -31
-14 -56 1 -26 -3 -39 -11 -39 -7 0 -10 5 -6 11 10 17 11 35 2 41 -5 3 -11 1
-14 -4 -4 -5 -2 -13 4 -16 8 -5 7 -11 -1 -22 -10 -12 -10 -16 1 -23 8 -5 18
-6 22 -4 4 3 8 0 8 -6 0 -6 -10 -8 -24 -4 -13 3 -27 1 -30 -5 -5 -7 -1 -8 9
-5 22 9 48 -15 34 -32 -6 -7 -7 -19 -3 -25 4 -8 3 -9 -4 -5 -7 4 -12 1 -12 -9
0 -9 4 -13 10 -10 5 3 10 1 10 -5 0 -6 -6 -10 -12 -9 -23 3 -38 -1 -38 -10 0
-4 10 -8 22 -7 24 1 25 -3 13 -42 -6 -21 -5 -23 13 -13 14 8 23 8 27 1 4 -6 3
-10 -2 -9 -21 4 -33 -2 -33 -16 0 -8 -4 -15 -10 -15 -5 0 -8 6 -6 13 1 6 1 9
-1 4 -3 -4 -10 -4 -16 -1 -7 4 0 -6 16 -20 21 -21 25 -31 18 -45 -6 -10 -6
-23 -1 -31 5 -8 6 -18 4 -22 -3 -4 -1 -8 3 -8 5 0 9 -21 9 -48 1 -26 3 -52 5
-57 2 -6 0 -10 -6 -10 -5 0 -9 3 -8 8 2 4 -2 7 -9 7 -9 0 -9 3 0 12 17 17 15
28 -5 28 -15 0 -16 -2 -3 -10 14 -9 7 -14 -13 -11 -5 1 0 -11 10 -26 16 -24
22 -46 13 -55 -7 -10 -6 -37 1 -32 5 3 7 9 4 14 -3 5 -1 11 5 15 6 4 7 12 3
18 -3 7 3 3 15 -7 25 -21 31 -36 7 -16 -13 10 -15 9 -15 -8 0 -12 -4 -24 -10
-27 -6 -4 -5 -13 2 -25 7 -10 17 -16 23 -12 5 3 4 -2 -4 -11 -7 -9 -10 -17 -5
-17 4 0 0 -6 -11 -13 -14 -11 -15 -16 -5 -22 9 -6 11 -4 5 5 -5 8 -3 11 6 8 8
-3 15 -14 17 -26 2 -14 8 -19 20 -16 15 5 15 4 2 -5 -11 -8 -18 -7 -27 6 -7 9
-13 12 -13 6 0 -18 26 -34 46 -27 14 4 16 3 5 -4 -16 -11 -5 -36 11 -26 7 4 8
2 4 -5 -4 -6 -12 -9 -17 -6 -5 4 -9 -1 -9 -10 0 -10 6 -15 13 -12 12 5 15 -24
6 -62 -2 -7 3 -16 11 -18 13 -4 13 -3 0 6 -19 13 0 14 20 1 10 -6 11 -10 3
-10 -7 0 -13 -5 -13 -11 0 -5 5 -7 12 -3 7 4 8 3 4 -5 -6 -9 -11 -9 -24 1 -13
12 -14 10 -4 -9 7 -12 17 -25 22 -28 6 -4 8 -11 5 -16 -4 -5 -2 -9 3 -9 6 0 8
-9 5 -19 -3 -10 3 -30 12 -44 15 -24 15 -26 -3 -36 -11 -6 -23 -7 -27 -3 -5 4
-5 1 -1 -6 5 -9 12 -9 27 -2 10 6 19 7 20 3 0 -4 5 1 10 12 7 16 8 13 5 -13
-3 -18 0 -32 6 -32 6 0 4 -7 -3 -17 -10 -11 -10 -14 -1 -9 7 4 12 1 12 -8 0
-10 -6 -13 -17 -10 -15 5 -15 4 -3 -4 10 -8 18 -7 28 0 10 9 12 8 10 -3 -2 -8
3 -13 10 -11 8 1 11 -2 8 -7 -4 -5 -2 -12 4 -16 5 -3 10 -12 10 -18 0 -8 -3
-8 -8 -2 -4 6 -15 11 -26 13 -14 3 -11 -4 13 -27 32 -31 41 -61 19 -61 -9 0
-8 -3 2 -10 8 -5 16 -14 16 -20 1 -5 2 -14 3 -19 0 -5 12 -12 26 -15 14 -4 25
-11 25 -16 0 -5 -6 -7 -14 -4 -8 3 -17 0 -22 -7 -5 -9 -2 -10 9 -6 10 4 29 -7
51 -28 30 -28 33 -35 20 -45 -12 -11 -13 -10 -9 3 4 8 2 18 -3 21 -5 3 -9 -6
-9 -19 0 -17 4 -24 15 -23 8 2 17 -3 19 -10 3 -7 -1 -10 -10 -6 -18 7 -32 -12
-16 -22 8 -4 9 -3 5 4 -12 19 12 14 24 -5 11 -17 11 -17 6 -1 -3 10 0 20 6 24
8 5 9 -5 5 -32 -4 -24 -3 -34 2 -25 5 8 17 16 26 17 13 2 14 -1 4 -12 -15 -18
-4 -60 18 -68 15 -6 15 -4 -2 14 -13 14 -15 24 -8 31 8 8 13 7 18 -2 6 -8 4
-10 -5 -4 -8 5 -11 3 -8 -6 3 -8 10 -13 15 -12 13 3 12 -30 -1 -40 -6 -4 3 -5
19 -2 28 5 28 5 7 -6 -12 -7 -22 -16 -22 -22 0 -5 7 -4 15 3 8 7 15 9 15 4 0
-5 7 0 15 10 8 11 15 15 15 9 0 -7 -5 -15 -11 -19 -8 -5 -7 -9 4 -15 9 -6 13
-18 10 -31 -4 -22 -4 -23 11 -4 9 11 16 15 16 9 0 -7 -6 -18 -14 -26 -13 -12
-12 -16 10 -25 20 -10 24 -9 25 6 0 15 1 15 8 -2 4 -10 7 -33 6 -50 -2 -29 1
-32 29 -34 16 -2 26 1 22 5 -4 4 -15 8 -23 8 -9 0 -17 7 -18 16 -2 9 3 16 11
16 11 0 11 -3 1 -16 -10 -12 -9 -14 5 -9 9 4 23 -1 34 -13 9 -10 14 -19 10
-19 -4 0 -3 -8 3 -17 6 -12 5 -20 -5 -28 -11 -8 -4 -10 28 -10 42 0 43 -1 43
-32 -1 -17 2 -30 6 -27 4 2 12 -3 19 -11 7 -8 18 -15 24 -15 6 0 4 5 -4 10
-12 7 -10 9 7 7 15 -1 19 -5 13 -13 -6 -6 -7 -13 -4 -17 3 -3 -5 -4 -18 -1
l-23 5 23 -10 c12 -6 22 -16 22 -23 0 -10 2 -10 8 -1 4 7 16 10 27 8 11 -2 23
-4 28 -4 4 -1 7 -6 7 -12 0 -5 -4 -7 -10 -4 -5 3 -10 -1 -10 -10 0 -9 4 -14 9
-11 9 6 26 -22 22 -37 -1 -4 8 -3 20 3 25 14 28 12 31 -27 1 -18 7 -31 13 -30
5 1 9 -3 8 -9 -1 -6 8 -11 20 -10 15 1 22 -4 21 -16 -1 -10 4 -14 13 -11 12 5
12 8 -1 22 -11 12 -12 21 -5 31 9 13 10 13 6 -1 -6 -17 27 -52 38 -41 3 4 3
-2 -1 -12 -5 -13 -4 -17 3 -13 15 9 44 -3 37 -14 -3 -5 1 -9 9 -9 8 0 14 -7
13 -16 0 -9 5 -19 12 -21 6 -3 12 0 12 7 0 6 -5 8 -10 5 -6 -3 -10 -1 -10 5 0
7 7 10 15 7 8 -4 17 -2 20 3 4 6 12 10 18 10 7 0 4 -5 -5 -11 -22 -12 -23 -29
-2 -29 9 0 12 5 8 13 -4 7 -3 9 2 4 5 -5 9 -13 9 -19 0 -10 15 -15 57 -20 9
-1 15 -4 13 -7 -3 -2 1 -11 8 -19 10 -13 9 -14 -2 -7 -10 6 -12 4 -6 -5 6 -10
11 -9 22 5 15 22 17 12 3 -15 -9 -16 -8 -18 6 -13 13 5 15 3 9 -7 -5 -8 -4
-11 3 -6 5 3 13 0 15 -6 4 -9 6 -10 6 -1 1 6 -3 15 -9 18 -13 8 -13 25 1 25 5
0 7 -4 4 -10 -3 -5 -2 -10 4 -10 5 0 13 5 16 10 3 6 11 10 18 10 6 0 2 -7 -9
-15 -10 -8 -15 -15 -11 -15 4 0 3 -9 -3 -20 -9 -16 -8 -18 5 -14 8 3 12 10 9
15 -3 5 -1 9 3 9 13 0 34 -40 28 -50 -4 -6 -4 -10 -1 -10 3 0 10 10 17 21 8
15 8 19 0 15 -16 -11 -13 0 5 14 12 11 15 11 12 -1 -2 -8 3 -13 10 -11 8 1 11
-2 7 -8 -3 -5 -1 -10 4 -10 6 0 11 -5 11 -12 0 -6 -7 -4 -18 5 -15 14 -19 14
-19 3 0 -8 5 -14 11 -13 6 1 10 -7 9 -18 -1 -20 -1 -20 13 -1 10 14 14 16 14
5 1 -8 7 -3 15 11 13 23 14 23 15 5 0 -12 -5 -26 -12 -33 -7 -7 -8 -12 -4 -12
4 0 15 9 25 21 16 20 18 20 31 4 12 -15 12 -19 -5 -31 -10 -8 -14 -14 -8 -14
7 0 15 5 18 10 4 6 15 1 27 -12 l20 -23 -16 25 c-22 34 -20 47 4 19 10 -13 19
-19 20 -14 0 6 -6 17 -12 24 -10 10 -8 10 10 0 13 -9 20 -20 17 -29 -5 -11 -3
-12 6 -3 13 13 39 7 39 -9 0 -6 -6 -5 -15 2 -9 7 -15 8 -15 2 0 -9 18 -20 38
-23 4 0 14 -6 22 -12 13 -10 13 -10 1 5 -7 10 -18 15 -25 11 -6 -3 -7 -2 -3 3
14 14 31 11 48 -10 12 -15 18 -16 24 -6 6 9 4 11 -5 5 -9 -6 -11 -4 -6 4 10
15 19 7 23 -18 2 -15 -2 -18 -17 -14 -11 3 -20 3 -20 0 0 -2 9 -7 20 -10 14
-3 24 1 31 15 8 15 8 19 0 14 -7 -5 -8 -1 -4 9 4 13 8 14 14 4 4 -7 5 -17 3
-21 -3 -4 0 -8 5 -8 6 0 11 4 11 10 0 5 11 9 24 8 14 -1 22 -6 20 -10 -5 -7
10 -12 29 -9 12 2 8 -11 -10 -33 -13 -15 -14 -17 -2 -9 12 10 18 10 27 1 9 -9
11 -6 7 10 -2 12 0 22 6 22 5 0 9 -7 9 -15 0 -14 12 -19 33 -16 7 1 11 -15 8
-32 -1 -5 3 -6 9 -2 7 4 7 12 0 26 -6 11 -15 17 -19 14 -5 -3 -12 2 -15 10 -4
12 -2 13 13 6 10 -6 21 -7 25 -4 3 3 6 -1 6 -9 0 -11 7 -14 25 -10 18 3 31 -2
41 -14 14 -18 15 -18 8 6 -6 24 -6 24 9 5 8 -11 13 -23 11 -27 -2 -3 4 -5 13
-3 10 2 22 4 26 4 5 1 5 6 1 13 -4 7 -3 8 5 4 6 -4 19 -2 28 6 12 9 15 9 9 1
-7 -12 5 -18 27 -14 5 1 6 -3 2 -9 -4 -7 -12 -7 -26 0 -13 7 -19 7 -19 0 0 -9
20 -14 47 -11 6 1 14 -3 17 -8 3 -5 15 -7 25 -4 10 3 22 0 25 -6 4 -5 14 -7
23 -4 10 4 14 2 10 -4 -3 -5 0 -10 7 -10 9 0 13 10 11 31 -2 17 -1 23 1 14 4
-11 11 -15 22 -11 15 6 16 5 2 -12 -14 -17 -14 -18 8 -6 12 7 20 17 16 23 -5
7 -2 8 7 3 20 -13 89 -13 89 -1 0 6 4 4 9 -4 6 -8 8 -17 5 -21 -2 -4 0 -10 6
-14 5 -3 10 1 10 10 0 13 3 14 23 3 12 -7 25 -12 29 -13 3 0 10 -3 14 -7 4 -5
12 -8 18 -8 5 0 2 6 -9 13 -12 10 -14 16 -7 21 7 4 12 2 12 -5 0 -7 6 -4 14 6
8 11 12 23 10 27 -2 4 0 9 5 13 6 3 8 -3 6 -13 -1 -9 3 -25 10 -35 12 -16 13
-16 18 2 3 14 11 18 26 14 12 -3 24 -10 28 -16 3 -6 1 -7 -5 -3 -7 4 -12 2
-12 -4 0 -15 25 -7 26 8 1 7 2 15 3 19 0 4 8 -2 17 -13 10 -12 14 -14 11 -4
-2 8 7 24 22 34 l26 20 -19 -22 c-14 -16 -16 -26 -9 -33 13 -13 33 -4 32 14 0
9 -2 9 -6 0 -2 -7 -9 -13 -15 -13 -6 0 -6 6 2 15 6 8 17 13 23 12 7 -1 11 4 9
11 -2 10 2 10 19 -2 12 -8 28 -12 35 -9 10 4 13 0 9 -13 -3 -11 2 -4 10 14 8
17 17 32 19 32 8 0 1 -35 -9 -42 -5 -4 -6 -10 -2 -15 10 -9 28 18 20 30 -3 4
3 7 13 5 11 -2 18 2 17 9 -5 21 7 15 39 -19 l31 -33 -16 31 c-15 29 -15 30 9
30 27 0 30 -6 12 -26 -7 -8 -3 -6 9 4 13 10 20 22 18 27 -3 4 -2 10 3 13 13 8
11 -27 -2 -43 -8 -12 -8 -13 2 -7 7 4 17 19 22 32 5 13 15 24 22 24 9 0 8 -3
-2 -10 -9 -6 -10 -10 -3 -10 6 0 15 5 18 10 8 13 25 13 25 -1 0 -5 -4 -7 -10
-4 -6 4 -7 -1 -3 -11 5 -14 8 -13 19 7 7 13 10 27 8 30 -2 4 5 5 15 2 13 -3
18 -11 14 -21 -3 -10 3 -5 15 9 16 20 28 25 48 21 18 -3 25 -1 20 6 -7 11 19
10 30 -1 13 -12 24 -7 24 11 0 13 -2 14 -9 4 -7 -11 -9 -11 -14 1 -4 10 0 14
11 12 9 -1 25 2 34 6 10 6 19 5 23 -1 4 -6 11 -8 16 -5 5 4 9 0 9 -7 0 -9 3
-9 10 2 5 8 7 24 4 35 -4 15 -3 17 5 6 10 -16 45 -25 35 -10 -4 8 58 52 79 55
4 1 12 2 18 3 5 0 8 5 4 10 -3 5 -1 12 4 15 5 4 8 -1 7 -10 -3 -20 -35 -46
-47 -38 -5 3 -9 0 -9 -6 0 -6 -4 -9 -8 -6 -4 2 -14 1 -22 -4 -13 -8 -12 -12 4
-27 16 -14 17 -14 7 -1 -7 10 -8 19 -2 22 5 3 12 0 14 -6 4 -10 6 -10 6 0 1 6
7 12 14 12 16 0 69 49 63 58 -2 4 10 7 27 7 21 0 31 5 29 13 -2 10 2 10 20 1
21 -11 22 -11 10 4 -11 13 -10 15 8 10 16 -4 19 -2 14 11 -5 12 -2 15 10 10 8
-3 14 -9 13 -12 -1 -4 1 -8 6 -9 4 -2 7 -1 7 2 0 3 0 12 0 21 0 8 -4 13 -8 10
-5 -3 -9 1 -9 9 0 10 5 10 23 -3 12 -9 19 -21 16 -27 -3 -5 -1 -6 3 -2 8 7 15
28 17 54 1 7 5 10 9 7 4 -2 6 -14 4 -26 -3 -11 -1 -17 3 -14 4 4 7 13 7 19 0
7 9 12 20 12 13 0 19 -6 17 -15 -2 -8 0 -11 4 -7 11 10 14 38 4 32 -9 -6 -23
25 -15 33 3 3 5 -1 5 -9 0 -11 2 -11 10 1 5 8 15 15 22 15 7 1 12 6 11 13 -2
7 4 9 14 5 14 -6 14 -7 -2 -19 -10 -7 -22 -11 -26 -8 -5 3 -9 1 -9 -5 0 -5 5
-13 10 -16 6 -3 10 -1 10 5 0 6 4 9 9 6 5 -3 12 1 15 10 3 8 10 12 16 9 7 -4
7 2 1 19 -8 19 -6 27 7 38 15 11 15 11 5 -2 -9 -12 -8 -19 3 -34 8 -11 14 -14
14 -7 0 7 5 9 12 5 7 -4 8 -3 4 4 -10 16 6 15 24 0 12 -11 12 -10 1 4 -16 21
-6 39 17 32 14 -5 15 -4 2 5 -11 8 -21 4 -42 -16 -16 -15 -28 -22 -28 -16 0
13 51 49 64 45 5 -2 6 4 3 12 -4 9 -1 18 5 22 7 4 8 3 4 -4 -4 -7 -2 -12 4
-12 6 0 8 -4 5 -10 -3 -5 -1 -10 6 -10 7 0 9 8 6 21 -3 13 0 22 10 26 12 5 12
8 1 15 -12 9 4 6 40 -9 6 -3 12 0 12 7 0 6 -4 9 -9 5 -5 -3 -12 -2 -15 3 -8
13 37 12 54 -1 13 -11 13 -10 0 7 -14 18 -13 19 2 13 11 -4 17 -2 15 5 -1 7 4
12 11 13 21 0 32 27 20 49 -11 21 -11 21 11 1 23 -20 23 -20 34 0 13 23 15 36
8 50 -3 6 2 2 12 -8 19 -22 22 -15 7 14 -8 14 -8 19 2 17 6 -2 12 3 13 10 0 6
3 12 8 12 4 0 10 0 14 0 3 0 -2 -9 -12 -20 -10 -11 -16 -20 -14 -21 2 0 12 -2
22 -4 15 -3 16 -1 5 13 -11 13 -11 15 4 9 15 -5 16 -2 8 18 -10 26 3 44 16 24
5 -8 3 -9 -6 -4 -9 5 -11 4 -6 -4 11 -18 25 -3 19 22 -4 18 -3 19 6 7 9 -13
11 -13 12 3 3 37 5 42 18 39 9 -2 11 3 7 13 -3 9 -2 14 3 10 5 -3 18 6 28 19
15 19 21 21 29 10 7 -11 12 -10 24 3 13 15 12 16 -3 10 -9 -3 -17 -4 -17 -1 0
11 31 36 47 38 18 3 29 46 11 46 -6 0 -8 3 -5 6 4 4 14 1 23 -7 16 -13 16 -12
6 7 -9 16 -8 21 3 21 8 0 11 -5 8 -11 -3 -6 0 -5 8 3 11 10 11 15 2 18 -7 3
-13 9 -13 14 0 6 10 5 23 -2 18 -9 20 -9 10 2 -18 19 -16 34 2 19 13 -11 14
-10 9 4 -3 9 -1 16 5 16 6 0 11 -5 11 -12 0 -6 2 -9 5 -6 9 8 -6 38 -16 32 -5
-3 -9 0 -9 5 0 6 7 11 15 11 8 0 15 -5 15 -10 0 -6 6 -5 14 2 12 11 12 14 0
21 -7 4 -10 15 -7 24 6 14 7 14 18 -1 11 -14 13 -13 13 9 0 15 -5 22 -12 18
-6 -3 -1 5 12 19 12 13 19 28 15 33 -5 4 -2 5 5 1 7 -4 12 -1 13 8 3 37 5 41
20 38 19 -3 63 43 55 57 -4 5 -14 7 -23 4 -11 -4 -14 -3 -9 6 5 7 15 10 23 7
11 -4 13 -2 9 9 -3 8 -1 15 3 15 5 0 11 -6 13 -12 3 -7 7 -2 10 10 4 12 3 20
-2 17 -4 -3 -10 4 -13 15 -4 16 -2 18 13 10 10 -5 20 -15 22 -22 3 -7 7 -5 11
6 4 11 3 15 -4 10 -7 -4 -10 -1 -7 7 3 8 1 24 -3 36 -6 17 -4 25 9 32 9 6 13
11 8 11 -5 0 -4 6 2 13 6 6 12 17 14 22 1 6 14 9 28 8 23 -2 24 -1 5 9 -11 6
-23 16 -27 22 -5 7 -8 6 -8 -3 0 -8 -3 -12 -6 -8 -3 3 -3 11 1 17 5 8 11 7 23
-2 13 -11 15 -10 9 5 -3 9 -2 17 3 17 9 0 14 -15 11 -33 -1 -5 3 -6 9 -2 7 4
7 12 0 25 -7 13 -6 21 5 30 7 6 11 19 8 28 -6 15 -4 15 9 4 11 -9 18 -10 23
-2 4 6 3 10 -2 9 -20 -4 -24 2 -12 18 8 9 13 18 12 20 -2 1 -3 4 -2 6 6 17 3
45 -4 44 -5 -1 -11 6 -12 16 -3 14 -1 16 10 7 10 -9 19 -9 32 0 16 10 16 11 1
6 -12 -3 -22 2 -29 17 -11 20 -11 21 4 8 16 -13 25 -2 10 13 -15 14 -10 32 9
33 19 2 19 1 3 -11 -17 -12 -17 -13 -1 -19 10 -4 14 -3 11 2 -3 6 3 14 12 20
10 6 13 11 8 11 -11 0 -19 40 -8 40 3 0 12 -8 20 -17 13 -16 13 -16 3 5 -11
22 -40 31 -40 12 0 -5 -6 -10 -12 -10 -7 1 -2 9 11 20 12 11 28 17 34 13 6 -3
7 -1 3 5 -3 6 -16 9 -27 7 -17 -3 -19 -2 -9 10 6 8 19 11 27 8 10 -4 14 -2 10
4 -4 6 -1 14 5 17 7 3 4 4 -7 1 -11 -2 -27 0 -35 6 -12 8 -9 9 9 4 17 -5 21
-4 16 5 -4 7 2 18 14 27 17 12 20 18 10 29 -6 8 -8 14 -4 14 4 0 1 8 -6 17
-10 11 -10 14 -1 9 6 -4 12 -3 12 3 0 5 -6 12 -12 14 -10 4 -10 6 0 6 8 1 10
6 5 14 -16 26 -11 35 21 31 18 -3 26 -1 19 3 -8 6 -9 14 -3 23 13 20 12 30 0
30 -5 0 -9 -3 -9 -7 3 -20 -2 -33 -12 -33 -8 0 -8 4 0 14 10 11 8 17 -6 26
-17 11 -17 11 0 6 14 -4 16 -1 13 19 -3 14 -1 23 5 20 5 -4 9 1 9 10 0 9 5 13
10 10 6 -3 10 -1 10 4 0 14 -13 14 -28 -1 -9 -9 -12 -9 -12 0 0 7 4 12 9 12 4
0 7 18 5 40 -2 22 1 40 6 40 5 0 7 -12 4 -27 -3 -20 -2 -24 5 -13 5 8 7 18 4
23 -3 5 5 6 18 3 23 -7 23 -6 4 6 -29 19 -31 41 -3 34 l23 -6 -22 11 c-13 7
-23 16 -23 21 0 5 -4 7 -9 4 -10 -7 -9 13 2 30 3 6 3 14 0 18 -11 11 -12 37
-1 30 7 -4 8 8 5 35 -2 22 0 38 4 35 5 -3 6 3 2 12 -4 10 -2 15 4 11 5 -3 10
0 10 8 0 8 -4 12 -8 9 -4 -2 -9 -1 -12 3 -2 5 -2 3 -1 -4 2 -7 0 -14 -4 -17
-4 -3 -8 4 -9 14 -1 11 3 22 8 25 5 4 6 11 3 17 -4 6 -3 8 3 5 6 -4 19 0 29 9
18 15 18 15 -1 6 -22 -10 -45 -6 -45 10 0 5 10 6 23 2 22 -6 22 -6 -2 15 -26
23 -35 71 -14 71 15 0 16 -5 4 -29 -7 -13 -6 -18 3 -18 16 0 14 54 -4 70 -10
10 -11 9 -5 -2 6 -10 4 -12 -4 -7 -9 6 -8 12 4 26 11 12 13 20 5 25 -8 5 -7
11 2 23 10 12 10 14 1 8 -7 -4 -13 -2 -13 3 0 6 5 11 12 11 6 0 8 3 5 6 -4 4
-13 1 -22 -6 -18 -15 -20 0 -2 19 10 11 9 13 -5 8 -12 -4 -15 -2 -12 8 3 8 12
11 19 9 18 -7 30 15 16 29 -9 9 -10 8 -5 -7 5 -14 3 -17 -7 -14 -19 6 -18 29
1 48 9 8 11 12 6 8 -13 -11 -28 -10 -22 0 6 10 -30 43 -38 35 -3 -4 -6 -4 -6
-1 0 3 7 11 16 18 12 11 15 11 12 0 -2 -7 4 -15 12 -17 13 -4 13 -3 0 6 -8 6
-11 11 -6 11 5 0 3 7 -4 15 -10 12 -10 18 1 33 13 16 12 16 -4 3 -17 -14 -18
-13 -15 5 1 10 10 22 18 26 12 5 11 7 -3 7 -10 1 -15 6 -12 11 3 6 1 10 -6 10
-10 0 -10 3 -1 12 15 15 16 28 2 28 -6 0 -9 -5 -8 -12 2 -7 -6 -13 -18 -14
-11 0 -21 5 -21 12 0 11 3 11 16 1 12 -10 14 -9 8 5 -3 9 -1 19 6 22 7 3 2 3
-9 1 -14 -4 -24 0 -28 11 -5 14 -4 15 8 5 10 -8 16 -9 21 -1 3 5 2 10 -3 10
-5 0 -8 13 -7 28 2 29 -37 97 -49 85 -4 -4 -4 0 -1 9 4 10 14 15 23 12 14 -5
14 -4 -1 6 -9 6 -14 16 -11 22 4 7 2 8 -4 4 -16 -10 -15 7 1 23 6 8 -1 6 -16
-4 -15 -10 -30 -15 -34 -11 -3 3 -1 6 7 6 9 0 10 3 1 13 -8 10 -7 14 4 14 8 0
11 -5 8 -11 -4 -6 -2 -7 3 -3 5 5 9 12 9 15 0 4 4 13 9 20 7 11 4 11 -12 1
-17 -10 -23 -10 -37 4 -9 9 -11 17 -5 17 6 0 9 4 5 9 -3 5 -1 12 4 16 6 3 8
-3 6 -15 -2 -11 -1 -22 3 -24 4 -3 8 11 8 30 0 22 -4 30 -10 24 -17 -17 -35
-11 -42 15 -3 14 -9 23 -13 20 -4 -2 -8 2 -8 10 0 8 4 12 9 9 4 -3 8 2 8 11 0
9 -4 14 -9 11 -18 -11 -22 28 -5 41 21 15 11 17 -16 3 -22 -12 -33 0 -19 20 7
13 9 13 9 0 0 -13 2 -13 9 0 14 21 3 32 -20 19 -12 -6 -23 -8 -27 -5 -3 3 1 6
9 6 12 0 11 2 -1 11 -13 9 -12 10 2 5 10 -3 20 -1 23 5 4 5 3 9 -2 8 -26 -4
-54 3 -52 14 1 6 -1 20 -6 30 -6 15 -10 16 -16 5 -6 -9 -9 -9 -9 -1 0 6 4 14
9 18 11 6 37 -34 32 -50 -1 -5 1 -6 5 -2 12 12 14 38 2 31 -6 -4 -8 1 -4 12 3
11 1 26 -5 34 -8 12 -9 10 -4 -8 7 -24 4 -24 -44 6 -2 1 -5 12 -7 25 -4 33 -4
33 -14 17 -8 -13 -11 -13 -22 -1 -7 8 -8 11 -2 8 7 -4 17 -1 23 7 9 10 8 15
-4 20 -11 4 -14 2 -9 -7 4 -7 3 -9 -2 -4 -5 5 -9 14 -9 20 0 7 -8 11 -16 9
-11 -1 -16 6 -17 28 0 17 3 28 8 25 5 -3 7 -14 5 -25 -2 -12 0 -18 6 -14 5 3
17 0 25 -7 12 -9 17 -10 27 0 9 10 8 11 -5 6 -18 -7 -43 26 -30 40 4 5 2 5 -5
1 -6 -3 -14 -2 -18 3 -3 6 -12 8 -20 5 -8 -4 -12 -11 -8 -18 4 -6 0 -5 -9 2
-10 8 -15 23 -12 37 3 17 0 23 -9 19 -8 -3 -13 4 -14 17 -1 12 -8 26 -15 30
-7 5 -9 9 -4 9 5 0 1 9 -8 19 -13 14 -14 20 -5 23 10 3 10 6 1 12 -7 4 -12 2
-12 -4 0 -6 -5 -8 -12 -4 -9 5 -9 2 1 -9 7 -9 9 -17 3 -17 -14 0 -23 27 -15
48 6 15 5 15 -10 3 -9 -7 -14 -17 -11 -22 3 -5 0 -9 -5 -9 -14 0 -14 13 1 28
7 7 8 12 2 12 -5 0 -2 5 6 10 12 7 10 9 -7 8 -12 -1 -19 -7 -16 -15 3 -7 1
-13 -5 -13 -15 0 -8 30 9 41 10 8 7 8 -11 3 -51 -14 -55 -14 -32 -3 12 7 22
16 22 21 0 5 -4 6 -10 3 -9 -5 -15 15 -11 38 0 4 -5 6 -11 5 -7 -2 -12 3 -10
10 1 6 -4 11 -10 10 -7 -2 -12 5 -12 14 1 13 -3 15 -21 8 -13 -5 -25 -6 -28
-4 -3 3 -13 7 -24 8 -11 2 -17 10 -15 22 2 11 5 28 6 40 3 18 0 21 -27 18 -39
-5 -57 11 -53 45 2 17 -2 28 -10 28 -6 0 -10 -6 -7 -14 4 -9 0 -11 -10 -7 -13
4 -15 1 -12 -16 2 -13 1 -19 -3 -16 -4 4 -8 16 -8 27 -3 39 -4 40 -26 33 -20
-6 -21 -5 -9 9 7 9 17 15 20 12 4 -2 8 2 8 10 0 12 -3 12 -15 3 -8 -7 -21 -13
-31 -14 -13 -2 -12 0 4 12 19 15 19 15 -5 10 -14 -4 -31 -2 -39 3 -17 11 -6
45 11 35 7 -4 9 -3 5 1 -10 11 -39 16 -32 5 3 -4 -1 -12 -8 -18 -10 -9 -12 -3
-12 23 1 28 -1 32 -14 26 -18 -9 -44 -3 -36 8 2 5 -7 7 -20 5 -14 -1 -27 2
-31 7 -3 5 -10 6 -16 3 -7 -4 -8 -2 -4 5 4 6 12 8 18 5 7 -5 8 -2 4 5 -5 7
-15 10 -23 7 -9 -4 -11 -2 -7 6 5 8 2 9 -9 5 -10 -3 -17 -2 -17 3 0 6 5 10 12
10 6 0 8 3 5 6 -4 4 -13 2 -20 -5 -20 -16 -38 7 -31 40 2 13 1 17 -2 9 -10
-22 -23 -28 -46 -22 -15 3 -16 7 -7 13 8 5 17 3 21 -4 5 -8 8 -6 8 6 0 14 -5
17 -22 12 -13 -4 -27 -11 -33 -16 -5 -5 -14 -9 -19 -9 -6 0 0 7 13 16 18 13
20 18 10 25 -8 5 -18 9 -24 9 -5 0 -4 -4 3 -9 11 -7 11 -9 -1 -14 -10 -4 -14
1 -13 16 1 12 6 22 13 22 6 0 14 3 18 7 9 8 -16 5 -32 -5 -6 -4 -13 -1 -16 5
-3 10 -7 10 -19 0 -11 -8 -18 -9 -22 -3 -4 6 -14 7 -23 4 -12 -5 -15 -2 -10
10 7 19 -4 22 -19 7 -7 -7 -11 -6 -11 4 0 8 3 13 7 11 3 -2 12 1 20 6 12 8 11
9 -5 7 -13 -2 -19 2 -17 11 2 11 0 12 -10 4 -22 -18 -61 -20 -65 -3 -4 12 -3
12 5 2 7 -11 10 -11 15 3 4 9 3 13 -2 10 -5 -3 -12 -1 -16 5 -10 16 -25 1 -18
-18 6 -16 6 -16 -10 0 -19 19 -23 43 -5 32 7 -5 8 -3 4 5 -6 9 -12 8 -26 -4
-19 -17 -52 -10 -48 10 2 8 -1 13 -7 12 -5 -1 -9 -7 -9 -13 2 -16 -24 -13 -30
3 -3 8 -2 12 3 9 5 -3 12 1 15 10 6 15 4 15 -20 -1 -25 -16 -26 -16 -19 4 7
23 -2 27 -25 10 -13 -9 -12 -10 3 -5 23 7 22 -1 -2 -14 -18 -9 -19 -7 -16 23
l3 32 -14 -32 c-15 -36 -29 -45 -19 -14 3 11 1 22 -5 26 -8 5 -7 12 2 23 12
15 11 16 -4 3 -10 -7 -15 -18 -11 -23 3 -6 0 -8 -8 -6 -8 3 -13 10 -12 16 2 7
-4 9 -15 5 -15 -6 -16 -5 -2 13 14 18 14 18 -3 5 -17 -14 -17 -16 -3 -27 9 -6
16 -17 16 -25 0 -9 -4 -8 -12 4 -15 19 -75 30 -81 14 -2 -6 -6 -3 -10 6 -3 9
-1 19 5 23 6 4 8 3 5 -2 -3 -6 3 -11 14 -11 10 -1 19 2 19 8 0 5 -6 8 -12 7
-7 -2 -12 3 -10 11 3 12 0 12 -12 2 -8 -7 -21 -9 -27 -5 -8 5 -10 2 -5 -7 4
-8 0 -5 -8 5 -9 11 -16 16 -16 11 0 -4 -10 0 -22 11 -14 12 -18 13 -10 3 11
-14 7 -16 -40 -11 -30 3 -57 11 -61 18 -4 8 -13 14 -20 14 -8 0 -8 -3 -2 -8 6
-4 16 -14 22 -23 10 -13 10 -16 -2 -16 -7 0 -13 5 -12 11 1 6 -12 10 -31 10
-27 -1 -33 2 -29 16 2 9 -1 17 -9 17 -7 0 -11 -4 -9 -8 3 -4 -2 -10 -11 -13
-8 -3 -12 -2 -9 3 3 5 0 13 -6 17 -8 5 -9 3 -4 -6 6 -10 4 -12 -10 -6 -14 5
-16 4 -7 -7 9 -10 8 -14 -3 -14 -7 0 -14 3 -13 6 2 20 -3 31 -12 26 -5 -3 -6
-13 -3 -22 6 -15 5 -16 -9 -3 -12 12 -13 18 -4 30 10 13 9 13 -6 1 -16 -12
-22 -9 -20 10 1 3 -5 6 -13 6 -8 0 -12 -4 -9 -9 3 -4 0 -8 -5 -8 -6 0 -11 -5
-11 -11 0 -8 4 -8 14 0 10 9 15 8 19 -2 3 -9 -2 -13 -16 -11 -12 1 -22 3 -22
4 0 6 -67 5 -71 -1 -2 -5 -11 -6 -20 -2 -8 3 -25 -3 -37 -13 -22 -19 -22 -19
-4 2 18 22 23 39 8 29 -5 -3 -11 0 -14 7 -2 7 -3 6 -2 -2 1 -9 -5 -22 -13 -29
-12 -12 -13 -11 -8 7 7 19 5 20 -31 9 -21 -6 -41 -16 -45 -22 -5 -7 -8 -7 -8
1 0 5 6 16 13 23 10 10 7 11 -15 7 -16 -2 -29 0 -31 7 -2 7 -3 5 -2 -3z m440
-40 c-3 -5 -12 -10 -18 -10 -7 0 -6 4 3 10 19 12 23 12 15 0z m-762 -25 c-3
-9 -8 -14 -10 -11 -3 3 -2 9 2 15 9 16 15 13 8 -4z m947 9 c0 -8 -19 -13 -24
-6 -3 5 1 9 9 9 8 0 15 -2 15 -3z m41 -11 c7 -10 9 -15 5 -11 -5 4 -15 3 -22
-3 -11 -9 -13 2 -5 29 2 6 10 1 22 -15z m-391 -7 c-7 -7 -13 -7 -20 0 -6 6 -3
10 10 10 13 0 16 -4 10 -10z m160 0 c-7 -7 -13 -7 -20 0 -6 6 -3 10 10 10 13
0 16 -4 10 -10z m-908 -30 c3 2 11 -4 19 -13 13 -16 12 -17 -3 -5 -11 9 -18
10 -23 2 -5 -8 -11 -8 -21 1 -21 17 -17 31 5 20 10 -6 21 -8 23 -5z m225 -11
c0 -8 -4 -12 -9 -9 -5 3 -6 10 -3 15 9 13 12 11 12 -6z m37 7 c3 -5 -1 -9 -9
-9 -8 0 -12 4 -9 9 3 4 7 8 9 8 2 0 6 -4 9 -8z m201 -10 c-3 -3 -11 0 -18 7
-9 10 -8 11 6 5 10 -3 15 -9 12 -12z m450 8 c3 -6 -1 -7 -9 -4 -18 7 -21 14
-7 14 6 0 13 -4 16 -10z m150 0 c3 -5 1 -10 -4 -10 -6 0 -11 5 -11 10 0 6 2
10 4 10 3 0 8 -4 11 -10z m-1185 -32 c0 -4 -8 -8 -17 -8 -16 0 -16 -2 -3 -11
12 -8 10 -9 -9 -4 -16 5 -21 4 -17 -4 4 -6 4 -11 -1 -10 -21 4 -34 -2 -27 -13
4 -7 3 -8 -4 -4 -6 4 -9 13 -6 21 4 8 10 12 15 10 4 -3 13 2 20 12 11 18 49
26 49 11z m60 -2 c0 -2 -7 -7 -16 -10 -8 -3 -12 -2 -9 4 6 10 25 14 25 6z
m1134 -4 c3 -5 -1 -9 -9 -9 -8 0 -15 4 -15 9 0 4 4 8 9 8 6 0 12 -4 15 -8z
m-1010 -40 c3 -5 -1 -9 -9 -9 -8 0 -12 4 -9 9 3 4 7 8 9 8 2 0 6 -4 9 -8z
m1570 -26 c-3 -9 -12 -12 -22 -9 -15 6 -9 11 25 22 1 1 0 -5 -3 -13z m-1946
-21 c-3 -3 -9 2 -12 12 -6 14 -5 15 5 6 7 -7 10 -15 7 -18z m2060 -46 c-3 -8
-7 -3 -11 10 -4 17 -3 21 5 13 5 -5 8 -16 6 -23z m-1954 13 c3 -5 -1 -9 -9 -9
-8 0 -12 4 -9 9 3 4 7 8 9 8 2 0 6 -4 9 -8z m1731 -1 c3 -5 2 -12 -3 -15 -5
-3 -9 1 -9 9 0 17 3 19 12 6z m-1742 -36 c-3 -9 -8 -14 -10 -11 -3 3 -2 9 2
15 9 16 15 13 8 -4z m1807 -1 c0 -8 -19 -13 -24 -6 -3 5 1 9 9 9 8 0 15 -2 15
-3z m111 -11 c13 -16 12 -17 -3 -4 -17 13 -22 21 -14 21 2 0 10 -8 17 -17z
m-2115 -33 c0 -12 -4 -16 -9 -11 -5 5 -6 14 -3 20 10 15 12 14 12 -9z m77 5
c-3 -9 -8 -14 -10 -11 -3 3 -2 9 2 15 9 16 15 13 8 -4z m-113 -5 c0 -5 -2 -10
-4 -10 -3 0 -8 5 -11 10 -3 6 -1 10 4 10 6 0 11 -4 11 -10z m2165 1 c-9 -8
-36 -10 -30 -2 2 4 11 8 20 8 8 0 13 -3 10 -6z m69 -7 c3 -8 2 -12 -4 -9 -6 3
-10 10 -10 16 0 14 7 11 14 -7z m-2363 -47 c-10 -9 -11 -8 -5 6 3 10 9 15 12
12 3 -3 0 -11 -7 -18z m2373 11 c-3 -4 -9 -8 -15 -8 -5 0 -9 4 -9 8 0 5 7 9
15 9 8 0 12 -4 9 -9z m116 6 c0 -8 -19 -13 -24 -6 -3 5 1 9 9 9 8 0 15 -2 15
-3z m-2582 -49 c-3 -3 -9 2 -12 12 -6 14 -5 15 5 6 7 -7 10 -15 7 -18z m-18
-6 c0 -6 -4 -7 -10 -4 -5 3 -10 1 -10 -4 0 -6 -5 -11 -10 -11 -6 0 -5 8 2 19
12 19 28 19 28 0z m2705 3 c-3 -3 -11 0 -18 7 -9 10 -8 11 6 5 10 -3 15 -9 12
-12z m45 -15 c0 -7 -4 -6 -10 3 -8 12 -10 12 -10 1 0 -8 -3 -12 -6 -8 -9 9 6
28 17 22 5 -4 9 -12 9 -18z m-2575 3 c3 -5 1 -10 -4 -10 -6 0 -11 5 -11 10 0
6 2 10 4 10 3 0 8 -4 11 -10z m2430 -20 c-3 -5 -12 -10 -18 -10 -7 0 -6 4 3
10 19 12 23 12 15 0z m-2700 -36 c-9 -9 -19 -13 -23 -10 -3 4 0 11 8 16 24 15
33 11 15 -6z m59 -2 c2 -4 -4 -8 -14 -8 -10 0 -16 4 -14 8 3 4 9 8 14 8 5 0
11 -4 14 -8z m-44 -26 c0 -2 -8 -10 -17 -17 -16 -13 -17 -12 -4 4 13 16 21 21
21 13z m81 -13 c13 -16 12 -17 -3 -4 -10 7 -18 15 -18 17 0 8 8 3 21 -13z
m2819 3 c0 -3 -4 -8 -10 -11 -5 -3 -10 -1 -10 4 0 6 5 11 10 11 6 0 10 -2 10
-4z m-3023 -41 c0 -11 -4 -12 -14 -3 -11 8 -12 7 -7 -6 3 -9 2 -16 -4 -16 -8
0 -9 16 -3 38 3 10 28 -1 28 -13z m3126 0 c-3 -9 -8 -14 -10 -11 -3 3 -2 9 2
15 9 16 15 13 8 -4z m-2988 -25 c3 -5 1 -10 -4 -10 -6 0 -11 5 -11 10 0 6 2
10 4 10 3 0 8 -4 11 -10z m3075 -30 c0 -5 -5 -12 -12 -16 -7 -4 -8 -3 -4 4 4
7 2 12 -3 12 -6 0 -11 -5 -11 -12 0 -6 -2 -9 -5 -6 -3 3 -3 12 1 21 6 16 34
13 34 -3z m119 -144 c-1 -19 -2 -19 -7 2 -4 13 -10 23 -14 23 -5 -1 -9 2 -10
7 -4 16 -24 29 -38 25 -13 -4 -13 -4 0 6 19 13 70 -33 69 -63z m-3571 -32 c0
-17 -3 -22 -8 -13 -5 6 -6 18 -3 26 8 19 11 16 11 -13z m82 2 c0 -2 -8 -10
-17 -17 -16 -13 -17 -12 -4 4 13 16 21 21 21 13z m-43 -21 c0 -8 -4 -12 -9 -9
-4 3 -8 9 -8 15 0 5 4 9 8 9 5 0 9 -7 9 -15z m-27 -29 c0 -2 -8 -10 -17 -17
-16 -13 -17 -12 -4 4 13 16 21 21 21 13z m65 -14 c-3 -3 -11 0 -18 7 -9 10 -8
11 6 5 10 -3 15 -9 12 -12z m3565 -32 c0 -5 -2 -10 -4 -10 -3 0 -8 5 -11 10
-3 6 -1 10 4 10 6 0 11 -4 11 -10z m55 0 c3 -5 1 -10 -4 -10 -6 0 -11 5 -11
10 0 6 2 10 4 10 3 0 8 -4 11 -10z m10 -38 c-3 -3 -11 0 -18 7 -9 10 -8 11 6
5 10 -3 15 -9 12 -12z m-3805 -2 c0 -5 -4 -10 -10 -10 -5 0 -10 5 -10 10 0 6
5 10 10 10 6 0 10 -4 10 -10z m3771 -47 c13 -16 12 -17 -3 -4 -17 13 -22 21
-14 21 2 0 10 -8 17 -17z m99 -67 c0 -2 -8 -10 -17 -17 -16 -13 -17 -12 -4 4
13 16 21 21 21 13z m-70 -26 c0 -5 -2 -10 -4 -10 -3 0 -8 5 -11 10 -3 6 -1 10
4 10 6 0 11 -4 11 -10z m-3815 -40 c-3 -5 -12 -10 -18 -10 -7 0 -6 4 3 10 19
12 23 12 15 0z m-45 -40 c0 -5 -2 -10 -4 -10 -3 0 -8 5 -11 10 -3 6 -1 10 4
10 6 0 11 -4 11 -10z m4000 0 c0 -5 -2 -10 -4 -10 -3 0 -8 5 -11 10 -3 6 -1
10 4 10 6 0 11 -4 11 -10z m-69 -33 c-10 -9 -11 -8 -5 6 3 10 9 15 12 12 3 -3
0 -11 -7 -18z m-4011 -11 c0 -2 -8 -10 -17 -17 -16 -13 -17 -12 -4 4 13 16 21
21 21 13z m-69 -13 c-10 -4 -8 -9 10 -20 17 -10 18 -12 4 -7 -11 3 -26 7 -32
7 -9 0 -10 4 -2 14 6 7 17 13 23 12 6 0 5 -3 -3 -6z m4189 -37 c0 -2 -7 -7
-16 -10 -8 -3 -12 -2 -9 4 6 10 25 14 25 6z m-42 -51 c-3 -3 -9 2 -12 12 -6
14 -5 15 5 6 7 -7 10 -15 7 -18z m-4087 -2 c13 -16 12 -17 -3 -4 -10 7 -18 15
-18 17 0 8 8 3 21 -13z m4126 -26 c0 -8 -6 -14 -14 -14 -9 0 -10 4 -2 14 6 7
12 13 14 13 1 0 2 -6 2 -13z m34 -14 c13 -16 12 -17 -3 -4 -10 7 -18 15 -18
17 0 8 8 3 21 -13z m86 -118 c0 -8 -4 -12 -9 -9 -5 3 -6 10 -3 15 9 13 12 11
12 -6z m-2 -35 c3 -5 1 -10 -4 -10 -6 0 -11 5 -11 10 0 6 2 10 4 10 3 0 8 -4
11 -10z m9 -38 c2 -4 -4 -8 -14 -8 -10 0 -16 4 -14 8 3 4 9 8 14 8 5 0 11 -4
14 -8z m77 -45 c-1 -12 -15 -9 -19 4 -3 6 1 10 8 8 6 -3 11 -8 11 -12z m-4550
-30 c-10 -9 -11 -8 -5 6 3 10 9 15 12 12 3 -3 0 -11 -7 -18z m4459 13 c8 -5
11 -10 5 -10 -5 0 -17 5 -25 10 -8 5 -10 10 -5 10 6 0 17 -5 25 -10z m-4394
-20 c0 -12 -4 -16 -9 -11 -5 5 -6 14 -3 20 10 15 12 14 12 -9z m4478 -6 c3 -8
2 -12 -4 -9 -6 3 -10 10 -10 16 0 14 7 11 14 -7z m32 -22 c-3 -3 2 -11 12 -18
15 -12 15 -13 -5 -8 -13 4 -21 13 -20 24 1 10 5 16 10 13 4 -3 6 -7 3 -11z
m-4555 -59 c13 -16 12 -17 -3 -4 -10 7 -18 15 -18 17 0 8 8 3 21 -13z m4576 2
c0 -8 -4 -12 -9 -9 -4 3 -8 9 -8 15 0 5 4 9 8 9 5 0 9 -7 9 -15z m-109 -40
c-3 -3 -9 2 -12 12 -6 14 -5 15 5 6 7 -7 10 -15 7 -18z m-4494 7 c3 -5 -1 -9
-9 -9 -8 0 -12 4 -9 9 3 4 7 8 9 8 2 0 6 -4 9 -8z m-11 -37 c-3 -9 -8 -14 -10
-11 -3 3 -2 9 2 15 9 16 15 13 8 -4z m-33 -41 c0 -8 -19 -13 -24 -6 -3 5 1 9
9 9 8 0 15 -2 15 -3z m4681 -1 c0 -5 2 -16 4 -25 2 -10 0 -20 -5 -23 -5 -3 -7
3 -5 12 4 26 -5 36 -21 22 -12 -10 -13 -9 -8 5 6 16 33 23 35 9z m13 -78 c3
-8 1 -15 -4 -15 -6 0 -10 7 -10 15 0 8 2 15 4 15 2 0 6 -7 10 -15z m-89 -5 c3
-6 -1 -7 -9 -4 -18 7 -21 14 -7 14 6 0 13 -4 16 -10z m-4661 -25 c-4 -8 -11
-12 -16 -9 -6 4 -5 10 3 15 19 12 19 11 13 -6z m11 -34 c3 -5 2 -12 -3 -15 -5
-3 -9 1 -9 9 0 17 3 19 12 6z m4760 -36 c0 -19 -7 -40 -15 -47 -12 -11 -12
-10 -3 2 5 8 9 30 7 48 -1 17 1 32 5 32 4 0 7 -16 6 -35z m-4705 21 c0 -2 -8
-10 -17 -17 -16 -13 -17 -12 -4 4 13 16 21 21 21 13z m4725 -135 c-3 -5 -1
-12 5 -16 12 -7 4 -25 -11 -25 -5 0 -7 10 -5 23 6 29 5 27 12 27 3 0 3 -4 -1
-9z m-40 -51 c3 -5 1 -10 -4 -10 -6 0 -11 5 -11 10 0 6 2 10 4 10 3 0 8 -4 11
-10z m-15 -84 c0 -2 -8 -10 -17 -17 -16 -13 -17 -12 -4 4 13 16 21 21 21 13z
m-4680 -52 c0 -8 -19 -13 -24 -6 -3 5 1 9 9 9 8 0 15 -2 15 -3z m4733 -19 c-3
-9 -8 -14 -10 -11 -3 3 -2 9 2 15 9 16 15 13 8 -4z m0 -100 c-3 -9 -8 -14 -10
-11 -3 3 -2 9 2 15 9 16 15 13 8 -4z m24 -150 c0 -8 -4 -12 -9 -9 -4 3 -8 9
-8 15 0 5 4 9 8 9 5 0 9 -7 9 -15z m-4817 -75 c0 -5 -2 -10 -4 -10 -3 0 -8 5
-11 10 -3 6 -1 10 4 10 6 0 11 -4 11 -10z m4780 -80 c0 -5 -5 -10 -11 -10 -5
0 -7 5 -4 10 3 6 8 10 11 10 2 0 4 -4 4 -10z m-4723 -55 c0 -8 -4 -12 -9 -9
-5 3 -6 10 -3 15 9 13 12 11 12 -6z m-32 -5 c3 -6 -1 -7 -9 -4 -18 7 -21 14
-7 14 6 0 13 -4 16 -10z m4725 -34 c0 -2 -8 -10 -17 -17 -16 -13 -17 -12 -4 4
13 16 21 21 21 13z m-4770 -26 c-20 -13 -33 -13 -25 0 3 6 14 10 23 10 15 0
15 -2 2 -10z m4760 -16 c0 -8 -19 -13 -24 -6 -3 5 1 9 9 9 8 0 15 -2 15 -3z
m-4719 -41 c13 -16 12 -17 -3 -4 -10 7 -18 15 -18 17 0 8 8 3 21 -13z m4719
13 c0 -2 -8 -10 -17 -17 -16 -13 -17 -12 -4 4 13 16 21 21 21 13z m-4749 -13
c0 -5 2 -19 5 -33 3 -23 3 -24 -8 -5 -16 26 -19 45 -7 45 5 0 9 -3 10 -7z
m4789 -28 c0 -2 -6 -5 -13 -8 -8 -3 -14 1 -14 8 0 7 6 11 14 8 7 -3 13 -6 13
-8z m-49 -22 c13 -16 12 -17 -3 -4 -17 13 -22 21 -14 21 2 0 10 -8 17 -17z
m-4617 -51 c3 -5 -1 -9 -9 -9 -8 0 -12 4 -9 9 3 4 7 8 9 8 2 0 6 -4 9 -8z
m4586 -26 c-7 -7 -13 -7 -20 0 -6 6 -3 10 10 10 13 0 16 -4 10 -10z m0 -30 c0
-2 -7 -7 -16 -10 -8 -3 -12 -2 -9 4 6 10 25 14 25 6z m-65 -66 c3 -5 1 -10 -4
-10 -6 0 -11 5 -11 10 0 6 2 10 4 10 3 0 8 -4 11 -10z m-4550 -60 c3 -6 -1 -7
-9 -4 -18 7 -21 14 -7 14 6 0 13 -4 16 -10z m4515 0 c0 -5 -2 -10 -4 -10 -3 0
-8 5 -11 10 -3 6 -1 10 4 10 6 0 11 -4 11 -10z m58 -45 c-3 -3 -9 2 -12 12 -6
14 -5 15 5 6 7 -7 10 -15 7 -18z m-4564 -14 c3 -5 -1 -11 -9 -14 -9 -4 -12 -1
-8 9 6 16 10 17 17 5z m4599 -3 c-4 -7 -8 -17 -8 -22 0 -5 -6 -11 -12 -13 -19
-7 -16 18 5 33 22 17 25 17 15 2z m-60 -53 c-7 -21 -12 -19 -10 4 0 11 5 18 9
15 4 -3 5 -11 1 -19z m30 -9 c3 -8 0 -20 -8 -26 -11 -9 -13 -7 -10 7 2 10 4
21 4 26 1 12 8 8 14 -7z m-89 -86 c-6 -6 -10 -3 -10 10 0 13 4 16 10 10 7 -7
7 -13 0 -20z m-4379 -69 c3 -5 2 -12 -3 -15 -5 -3 -9 1 -9 9 0 17 3 19 12 6z
m4380 -59 c-3 -3 -11 0 -18 7 -9 10 -8 11 6 5 10 -3 15 -9 12 -12z m-4314 -19
c13 -16 12 -17 -3 -4 -10 7 -18 15 -18 17 0 8 8 3 21 -13z m-57 -9 c3 -8 10
-12 16 -9 6 3 7 -1 4 -10 -7 -16 -29 -16 -29 1 0 5 -4 15 -8 22 -5 6 -4 12 1
12 6 0 13 -7 16 -16z m136 -30 c0 -8 -19 -13 -24 -6 -3 5 1 9 9 9 8 0 15 -2
15 -3z m-4 -39 c-1 -8 -5 -17 -8 -21 -5 -4 -4 16 1 34 3 9 9 -1 7 -13z m-31
-5 c3 -6 -1 -7 -9 -4 -18 7 -21 14 -7 14 6 0 13 -4 16 -10z m4225 -5 c0 -1 -9
-10 -19 -19 -19 -17 -19 -17 -16 1 2 10 4 18 4 19 2 2 31 1 31 -1z m-4170 -89
c0 -3 -4 -8 -10 -11 -5 -3 -10 -1 -10 4 0 6 5 11 10 11 6 0 10 -2 10 -4z
m3981 -63 c13 -16 12 -17 -3 -4 -10 7 -18 15 -18 17 0 8 8 3 21 -13z m-3810
-136 c-10 -9 -11 -8 -5 6 3 10 9 15 12 12 3 -3 0 -11 -7 -18z m3694 -27 c-3
-5 -12 -10 -18 -10 -7 0 -6 4 3 10 19 12 23 12 15 0z m-3745 -30 c0 -5 -5 -10
-11 -10 -5 0 -7 5 -4 10 3 6 8 10 11 10 2 0 4 -4 4 -10z m3807 -5 c0 -7 -6
-12 -13 -12 -7 0 -11 4 -8 8 2 4 -2 9 -8 12 -7 3 -4 5 8 4 11 -1 21 -6 21 -12z
m-63 -3 c2 -4 -4 -8 -14 -8 -10 0 -16 4 -14 8 3 4 9 8 14 8 5 0 11 -4 14 -8z
m-3573 -49 c13 -16 12 -17 -3 -4 -10 7 -18 15 -18 17 0 8 8 3 21 -13z m3542
-8 c-3 -9 -8 -14 -10 -11 -3 3 -2 9 2 15 9 16 15 13 8 -4z m-3584 -69 c9 -10
8 -15 -2 -19 -8 -3 -13 3 -13 14 0 23 0 23 15 5z m92 -33 c13 -16 12 -17 -3
-4 -10 7 -18 15 -18 17 0 8 8 3 21 -13z m3329 3 c0 -2 -8 -10 -17 -17 -16 -13
-17 -12 -4 4 13 16 21 21 21 13z m-3358 -23 c-10 -4 -10 -8 -1 -19 7 -8 7 -14
1 -14 -12 0 -23 26 -15 34 4 3 11 6 17 5 6 0 5 -3 -2 -6z m3348 -19 c0 -8 -19
-13 -24 -6 -3 5 1 9 9 9 8 0 15 -2 15 -3z m-3185 -24 c3 -5 1 -10 -4 -10 -6 0
-11 5 -11 10 0 6 2 10 4 10 3 0 8 -4 11 -10z m-101 -29 c3 -5 -1 -11 -9 -14
-9 -4 -12 -1 -8 9 6 16 10 17 17 5z m3286 -36 c-7 -9 -15 -13 -17 -11 -7 7 7
26 19 26 6 0 6 -6 -2 -15z m-3205 -35 c10 8 15 8 21 -1 4 -7 3 -9 -4 -5 -6 3
-13 2 -17 -4 -8 -13 -25 -3 -24 13 0 8 2 8 6 -1 4 -9 8 -10 18 -2z m3157 3
c-6 -2 -10 -9 -6 -14 3 -5 2 -8 -3 -7 -4 1 -19 -4 -31 -11 -13 -7 -26 -10 -29
-8 -2 3 5 8 16 12 12 3 18 11 15 17 -4 7 -2 8 4 4 7 -4 12 -2 12 3 0 6 8 11
18 10 10 0 12 -3 4 -6z m-3105 -53 c-4 -15 0 -20 14 -20 19 0 25 -11 12 -23
-12 -12 -41 23 -36 44 3 10 8 19 10 19 3 0 3 -9 0 -20z m2851 -35 c-3 -3 -9 2
-12 12 -6 14 -5 15 5 6 7 -7 10 -15 7 -18z m-2748 -11 c0 -8 -19 -13 -24 -6
-3 5 1 9 9 9 8 0 15 -2 15 -3z m24 -22 c3 -5 -1 -9 -9 -9 -8 0 -12 4 -9 9 3 4
7 8 9 8 2 0 6 -4 9 -8z m199 -37 c-3 -9 -8 -14 -10 -11 -3 3 -2 9 2 15 9 16
15 13 8 -4z m-153 -7 c0 -4 -4 -8 -9 -8 -6 0 -12 4 -15 8 -3 5 1 9 9 9 8 0 15
-4 15 -9z m2455 -67 c3 -5 2 -12 -3 -15 -5 -3 -9 1 -9 9 0 17 3 19 12 6z m-25
-5 c0 -2 -8 -10 -17 -17 -16 -13 -17 -12 -4 4 13 16 21 21 21 13z m-1930 -80
c0 -2 -7 -7 -16 -10 -8 -3 -12 -2 -9 4 6 10 25 14 25 6z m1724 -8 c-3 -4 -9
-8 -15 -8 -5 0 -9 4 -9 8 0 5 7 9 15 9 8 0 12 -4 9 -9z m70 4 c3 -5 -1 -9 -9
-9 -8 0 -12 4 -9 9 3 4 7 8 9 8 2 0 6 -4 9 -8z m-1909 -42 c3 -6 -1 -7 -9 -4
-18 7 -21 14 -7 14 6 0 13 -4 16 -10z m1835 6 c0 -2 -7 -7 -16 -10 -8 -3 -12
-2 -9 4 6 10 25 14 25 6z m-1545 -25 c3 -5 2 -12 -3 -15 -5 -3 -9 1 -9 9 0 17
3 19 12 6z m105 -23 c0 -4 -4 -8 -9 -8 -6 0 -12 4 -15 8 -3 5 1 9 9 9 8 0 15
-4 15 -9z m1155 3 c3 -5 2 -12 -3 -15 -5 -3 -9 1 -9 9 0 17 3 19 12 6z m283
-11 c-7 -10 -14 -17 -17 -15 -4 4 18 35 25 35 2 0 -1 -9 -8 -20z m-441 -25 c0
-8 -4 -12 -9 -9 -5 3 -6 10 -3 15 9 13 12 11 12 -6z m396 2 c3 -8 -1 -14 -8
-14 -7 0 -11 6 -8 14 6 16 10 16 16 0z m-1238 -15 c-3 -3 -11 0 -18 7 -9 10
-8 11 6 5 10 -3 15 -9 12 -12z m1025 -6 c0 -3 -4 -8 -10 -11 -5 -3 -10 -1 -10
4 0 6 5 11 10 11 6 0 10 -2 10 -4z m-540 -30 c-7 -7 -13 -7 -20 0 -6 6 -3 10
10 10 13 0 16 -4 10 -10z m210 10 c0 -2 -8 -10 -17 -17 -16 -13 -17 -12 -4 4
13 16 21 21 21 13z m355 -6 c-3 -5 -12 -10 -18 -10 -7 0 -6 4 3 10 19 12 23
12 15 0z m-765 -24 c0 -2 -8 -10 -17 -17 -16 -13 -17 -12 -4 4 13 16 21 21 21
13z m200 -10 c0 -3 -4 -8 -10 -11 -5 -3 -10 -1 -10 4 0 6 5 11 10 11 6 0 10
-2 10 -4z m-503 -28 c2 -17 0 -19 -7 -8 -5 8 -6 18 -4 22 8 12 10 10 11 -14z
m179 -16 c-3 -3 2 -10 11 -17 14 -10 13 -12 -8 -9 -13 1 -26 3 -28 3 -2 1 2 7
8 14 6 8 7 18 3 22 -4 5 -1 5 6 1 7 -5 11 -10 8 -14z m364 14 c0 -2 -8 -10
-17 -17 -16 -13 -17 -12 -4 4 13 16 21 21 21 13z m-407 -15 c21 10 21 9 3 -5
-20 -16 -37 -13 -35 7 0 9 2 9 6 0 3 -10 10 -10 26 -2z m307 -21 c0 -16 -17
-20 -28 -7 -8 10 -6 13 9 14 10 1 19 -2 19 -7z"/>
<path d="M2630 4995 c-11 -13 -10 -14 4 -9 9 3 16 10 16 15 0 13 -6 11 -20 -6z"/>
<path d="M2340 4991 c0 -6 4 -13 10 -16 6 -3 7 1 4 9 -7 18 -14 21 -14 7z"/>
<path d="M2577 4993 c-4 -3 -7 -11 -7 -17 0 -6 5 -5 12 2 6 6 9 14 7 17 -3 3
-9 2 -12 -2z"/>
<path d="M2177 4984 c-3 -3 -3 -13 1 -22 5 -15 4 -16 -14 -2 -17 14 -18 14 -6
-2 15 -19 44 -17 50 3 3 11 1 11 -7 -1 -10 -13 -11 -13 -12 0 -1 8 -1 18 0 23
1 9 -4 9 -12 1z"/>
<path d="M2850 4969 c0 -5 5 -7 10 -4 6 3 10 8 10 11 0 2 -4 4 -10 4 -5 0 -10
-5 -10 -11z"/>
<path d="M2103 4956 c-10 -11 -9 -15 3 -20 24 -9 45 6 34 24 -8 13 -10 12 -10
-2 0 -10 -4 -18 -10 -18 -5 0 -7 7 -4 15 7 18 3 19 -13 1z"/>
<path d="M2010 4939 c0 -5 -4 -8 -8 -5 -5 3 -9 -1 -9 -8 0 -20 23 -15 24 6 1
10 0 18 -3 18 -2 0 -4 -5 -4 -11z"/>
<path d="M1895 4920 c-3 -5 -1 -10 4 -10 6 0 11 5 11 10 0 6 -2 10 -4 10 -3 0
-8 -4 -11 -10z"/>
<path d="M3397 4853 c-10 -9 -9 -23 1 -23 5 0 9 7 9 15 0 17 -1 18 -10 8z"/>
<path d="M1655 4841 c-3 -5 -2 -12 3 -15 5 -3 9 1 9 9 0 17 -3 19 -12 6z"/>
<path d="M3513 4815 c0 -8 4 -12 9 -9 5 3 6 10 3 15 -9 13 -12 11 -12 -6z"/>
<path d="M3586 4765 c-4 -11 -4 -16 0 -12 4 4 14 1 22 -6 11 -8 14 -8 9 0 -4
6 -4 13 0 16 5 2 3 2 -4 1 -6 -2 -13 2 -16 9 -2 6 -7 2 -11 -8z"/>
<path d="M3715 4720 c3 -5 8 -10 11 -10 2 0 4 5 4 10 0 6 -5 10 -11 10 -5 0
-7 -4 -4 -10z"/>
<path d="M3785 4661 c-3 -5 0 -13 6 -17 7 -4 9 -3 5 4 -3 5 0 13 6 15 9 4 10
6 1 6 -6 1 -14 -3 -18 -8z"/>
<path d="M1253 4623 c4 -6 1 -14 -5 -17 -7 -2 -3 -4 9 -2 12 1 26 6 30 12 5 5
4 6 -1 2 -5 -4 -16 -2 -24 5 -11 8 -14 8 -9 0z"/>
<path d="M3886 4607 c-16 -12 -16 -14 -3 -14 9 0 18 6 21 14 3 7 4 13 3 13 -2
0 -11 -6 -21 -13z"/>
<path d="M3933 4595 c0 -8 4 -12 9 -9 5 3 6 10 3 15 -9 13 -12 11 -12 -6z"/>
<path d="M1096 4538 c3 -5 9 -6 14 -3 4 3 10 0 12 -7 3 -8 6 -7 10 3 4 11 -1
15 -17 15 -13 0 -21 -4 -19 -8z"/>
<path d="M4007 4509 c7 -7 15 -10 18 -7 3 3 -2 9 -12 12 -14 6 -15 5 -6 -5z"/>
<path d="M4156 4388 c3 -5 10 -6 15 -3 13 9 11 12 -6 12 -8 0 -12 -4 -9 -9z"/>
<path d="M927 4365 c3 -8 9 -12 14 -9 12 7 11 11 -5 17 -10 4 -13 1 -9 -8z"/>
<path d="M4250 4325 c-1 -11 -4 -14 -7 -7 -2 6 -9 10 -14 6 -17 -10 -9 -23 11
-19 11 2 20 -1 20 -7 0 -6 2 -9 5 -6 3 3 1 16 -4 29 -9 21 -10 22 -11 4z"/>
<path d="M861 4313 c-9 -10 -10 -18 -3 -25 6 -6 12 -6 16 1 4 6 4 11 -1 11 -4
0 -2 4 6 9 7 5 9 11 5 14 -5 3 -15 -2 -23 -10z"/>
<path d="M640 4100 c-9 -6 -10 -10 -3 -10 6 0 15 5 18 10 8 12 4 12 -15 0z"/>
<path d="M4545 4000 c-4 -6 -10 -8 -14 -6 -4 3 -8 -1 -8 -9 0 -13 3 -13 17 0
9 8 20 12 25 8 4 -5 5 -2 1 5 -9 15 -13 15 -21 2z"/>
<path d="M543 3939 c9 -6 14 -15 11 -21 -4 -7 -2 -8 5 -4 14 9 -3 36 -23 36
-6 0 -3 -5 7 -11z"/>
<path d="M4633 3887 c0 -8 6 -14 14 -14 9 0 10 4 2 14 -6 7 -12 13 -14 13 -1
0 -2 -6 -2 -13z"/>
<path d="M4637 3853 c-11 -11 -8 -21 9 -27 13 -5 14 -4 6 7 -7 8 -9 17 -5 20
3 4 4 7 1 7 -2 0 -8 -3 -11 -7z"/>
<path d="M425 3800 c-3 -6 1 -7 9 -4 18 7 21 14 7 14 -6 0 -13 -4 -16 -10z"/>
<path d="M310 3579 c0 -5 5 -7 10 -4 6 3 10 8 10 11 0 2 -4 4 -10 4 -5 0 -10
-5 -10 -11z"/>
<path d="M4777 3583 c7 -2 10 -10 7 -18 -7 -17 12 -29 22 -14 4 8 3 9 -4 5
-15 -9 -16 6 -2 20 6 6 2 10 -13 11 -12 0 -17 -1 -10 -4z"/>
<path d="M280 3429 c0 -5 5 -7 10 -4 6 3 10 8 10 11 0 2 -4 4 -10 4 -5 0 -10
-5 -10 -11z"/>
<path d="M217 3253 c-10 -9 -9 -23 1 -23 5 0 9 7 9 15 0 17 -1 18 -10 8z"/>
<path d="M182 3140 c-15 -25 -15 -33 0 -28 6 2 13 14 15 26 4 27 1 27 -15 2z"/>
<path d="M156 3083 c-6 -14 -5 -15 5 -6 7 7 10 15 7 18 -3 3 -9 -2 -12 -12z"/>
<path d="M137 2965 c3 -8 9 -12 14 -9 12 7 11 11 -5 17 -10 4 -13 1 -9 -8z"/>
<path d="M128 2933 c6 -3 10 -9 6 -14 -3 -5 -1 -9 4 -9 21 0 19 26 -2 27 -11
0 -15 -1 -8 -4z"/>
<path d="M130 2789 c0 -6 -9 -9 -20 -6 -11 3 -18 2 -15 -3 3 -4 13 -10 23 -12
12 -4 18 1 19 13 1 11 0 19 -3 19 -2 0 -4 -5 -4 -11z"/>
<path d="M90 2719 c0 -5 5 -7 10 -4 6 3 10 8 10 11 0 2 -4 4 -10 4 -5 0 -10
-5 -10 -11z"/>
<path d="M5026 2662 c-3 -5 1 -9 9 -9 8 0 12 4 9 9 -3 4 -7 8 -9 8 -2 0 -6 -4
-9 -8z"/>
<path d="M111 2651 c-7 -5 -12 -12 -12 -17 1 -5 -3 -9 -8 -9 -5 0 -12 -2 -15
-5 -3 -4 6 -6 19 -6 13 0 22 2 20 5 -3 2 3 9 12 16 18 14 4 28 -16 16z"/>
<path d="M5017 2569 c7 -7 15 -10 18 -7 3 3 -2 9 -12 12 -14 6 -15 5 -6 -5z"/>
<path d="M113 2530 c-3 -11 -9 -20 -14 -20 -5 0 -9 -5 -9 -11 0 -18 27 8 33
31 3 11 3 20 0 20 -3 0 -7 -9 -10 -20z"/>
<path d="M5030 2510 c0 -5 -7 -7 -15 -4 -8 4 -15 4 -15 1 0 -13 30 -14 40 -1
9 10 9 14 1 14 -6 0 -11 -4 -11 -10z"/>
<path d="M5004 2469 c-2 -4 4 -13 14 -20 9 -7 14 -9 10 -5 -4 5 -1 14 8 20 13
10 12 12 -6 12 -12 0 -23 -3 -26 -7z"/>
<path d="M106 2431 c-4 -5 -2 -12 3 -15 5 -4 12 -2 15 3 4 5 2 12 -3 15 -5 4
-12 2 -15 -3z"/>
<path d="M100 2376 c0 -2 7 -7 16 -10 8 -3 12 -2 9 4 -6 10 -25 14 -25 6z"/>
<path d="M93 2333 c0 -9 4 -10 14 -2 12 11 14 10 17 -10 0 -5 4 -12 8 -16 3
-4 5 1 3 12 -2 10 -4 21 -4 25 -2 13 -38 4 -38 -9z"/>
<path d="M5010 2271 c0 -6 4 -13 10 -16 6 -3 7 1 4 9 -7 18 -14 21 -14 7z"/>
<path d="M4966 2162 c-4 -7 -3 -12 3 -12 6 0 9 -13 7 -29 -2 -16 1 -35 5 -43
6 -8 7 -1 5 20 -2 21 2 39 13 49 15 16 15 16 -1 11 -9 -4 -18 -2 -21 5 -2 8
-5 8 -11 -1z"/>
<path d="M4966 2025 c-11 -8 -15 -15 -9 -15 6 0 16 7 23 15 16 19 11 19 -14 0z"/>
<path d="M167 1969 c7 -7 15 -10 18 -7 3 3 -2 9 -12 12 -14 6 -15 5 -6 -5z"/>
<path d="M190 1890 c-9 -6 -10 -10 -3 -10 6 0 15 5 18 10 8 12 4 12 -15 0z"/>
<path d="M200 1806 c0 -3 9 -10 20 -16 11 -6 20 -8 20 -6 0 3 -9 10 -20 16
-11 6 -20 8 -20 6z"/>
<path d="M210 1759 c0 -5 5 -7 10 -4 6 3 10 8 10 11 0 2 -4 4 -10 4 -5 0 -10
-5 -10 -11z"/>
<path d="M240 1706 c0 -2 8 -10 18 -17 15 -13 16 -12 3 4 -13 16 -21 21 -21
13z"/>
<path d="M273 1630 c1 -21 10 -18 13 5 1 8 -2 15 -6 15 -5 0 -8 -9 -7 -20z"/>
<path d="M4804 1562 c3 -6 2 -13 -4 -17 -6 -4 -8 -10 -5 -15 3 -5 -3 -13 -12
-19 -17 -9 -17 -10 -1 -16 10 -4 15 -12 11 -18 -3 -6 -1 -7 6 -3 8 6 9 12 2
20 -6 7 -7 16 -3 20 4 4 8 12 8 17 1 5 2 12 3 15 0 4 8 1 16 -6 9 -7 17 -11
19 -9 2 2 -8 13 -22 23 -14 11 -22 14 -18 8z"/>
<path d="M297 1553 c-3 -5 5 -8 18 -8 13 0 21 3 18 8 -2 4 -10 7 -18 7 -8 0
-16 -3 -18 -7z"/>
<path d="M413 1325 c0 -8 7 -11 15 -7 11 4 13 1 7 -8 -5 -9 -4 -11 3 -6 17 11
15 23 -6 28 -11 3 -19 0 -19 -7z"/>
<path d="M4663 1294 c0 -7 6 -15 12 -18 6 -2 12 2 12 10 0 7 -6 15 -12 18 -6
2 -12 -2 -12 -10z"/>
<path d="M4700 1306 c0 -2 7 -7 16 -10 8 -3 12 -2 9 4 -6 10 -25 14 -25 6z"/>
<path d="M4641 1246 c-17 -18 -19 -26 -10 -31 8 -6 10 -4 4 5 -6 10 -4 12 9 7
11 -4 15 -3 10 4 -4 6 0 15 7 20 7 4 11 10 8 13 -3 3 -16 -5 -28 -18z"/>
<path d="M4675 1240 c-3 -5 -1 -10 4 -10 6 0 11 5 11 10 0 6 -2 10 -4 10 -3 0
-8 -4 -11 -10z"/>
<path d="M4633 1185 c0 -8 4 -12 9 -9 5 3 6 10 3 15 -9 13 -12 11 -12 -6z"/>
<path d="M535 1089 c-4 -6 -5 -12 -2 -15 2 -3 7 2 10 11 7 17 1 20 -8 4z"/>
<path d="M590 1059 c0 -5 5 -7 10 -4 6 3 10 -2 10 -12 0 -15 2 -16 10 -3 6 9
5 17 -3 22 -17 11 -27 10 -27 -3z"/>
<path d="M655 960 c3 -5 8 -10 11 -10 2 0 4 5 4 10 0 6 -5 10 -11 10 -5 0 -7
-4 -4 -10z"/>
<path d="M4455 960 c3 -5 8 -10 11 -10 2 0 4 5 4 10 0 6 -5 10 -11 10 -5 0 -7
-4 -4 -10z"/>
<path d="M4387 912 c-12 -13 -13 -21 -6 -32 9 -12 10 -11 5 4 -5 15 -2 17 14
13 11 -3 23 -1 26 4 3 5 0 8 -8 7 -7 -2 -12 3 -10 10 3 16 -2 15 -21 -6z"/>
<path d="M740 900 c-11 -7 -11 -10 -2 -10 7 0 10 -4 7 -10 -3 -5 -2 -10 4 -10
5 0 9 9 8 20 -1 11 -1 20 -2 20 0 0 -7 -5 -15 -10z"/>
<path d="M4344 854 c0 -12 4 -20 8 -18 5 3 6 10 3 15 -4 5 -1 9 4 9 6 0 11 4
11 8 0 5 -6 9 -13 9 -7 0 -13 -11 -13 -23z"/>
<path d="M793 827 c-3 -6 -1 -7 5 -3 11 7 17 -7 12 -29 -1 -5 2 -7 6 -2 13 13
11 44 -3 44 -8 0 -17 -5 -20 -10z"/>
<path d="M4321 798 c-13 -20 -12 -22 1 -11 8 7 18 10 22 6 4 -4 4 0 0 10 -8
21 -6 21 -23 -5z"/>
<path d="M926 708 c3 -5 10 -6 15 -3 13 9 11 12 -6 12 -8 0 -12 -4 -9 -9z"/>
<path d="M950 660 c0 -5 5 -10 11 -10 5 0 7 5 4 10 -3 6 -8 10 -11 10 -2 0 -4
-4 -4 -10z"/>
<path d="M1001 636 c-9 -11 -9 -16 0 -22 7 -4 9 -3 5 4 -3 5 0 12 6 15 7 2 10
7 7 11 -3 4 -12 0 -18 -8z"/>
<path d="M4041 591 c-9 -6 -10 -11 -2 -15 6 -4 11 -2 11 4 0 6 5 8 12 4 7 -4
8 -3 4 4 -8 14 -7 14 -25 3z"/>
<path d="M1155 520 c-3 -5 -1 -10 4 -10 6 0 11 5 11 10 0 6 -2 10 -4 10 -3 0
-8 -4 -11 -10z"/>
<path d="M1261 444 c0 -11 3 -14 6 -6 3 7 2 16 -1 19 -3 4 -6 -2 -5 -13z"/>
<path d="M1290 437 c0 -14 5 -17 21 -12 15 5 19 4 15 -4 -4 -6 0 -21 8 -33 9
-12 16 -17 16 -11 0 7 -5 15 -10 18 -6 4 -9 14 -8 23 2 10 -4 17 -12 17 -8 0
-18 5 -22 10 -4 6 -8 2 -8 -8z"/>
<path d="M3690 339 c0 -5 5 -7 10 -4 6 3 10 8 10 11 0 2 -4 4 -10 4 -5 0 -10
-5 -10 -11z"/>
<path d="M3590 309 c0 -5 5 -7 10 -4 6 3 10 8 10 11 0 2 -4 4 -10 4 -5 0 -10
-5 -10 -11z"/>
<path d="M1587 286 c-4 -10 -1 -13 8 -9 8 3 12 9 9 14 -7 12 -11 11 -17 -5z"/>
<path d="M3350 215 c-11 -13 -10 -14 4 -9 9 3 16 10 16 15 0 13 -6 11 -20 -6z"/>
<path d="M3430 218 c0 -4 4 -8 9 -8 6 0 12 4 15 8 3 5 -1 9 -9 9 -8 0 -15 -4
-15 -9z"/>
<path d="M1870 193 c0 -5 4 -14 9 -21 7 -11 9 -11 14 1 3 8 3 18 0 21 -9 8
-23 7 -23 -1z"/>
<path d="M3222 170 c-18 -29 -15 -38 4 -12 9 13 14 25 12 27 -2 2 -9 -5 -16
-15z"/>
<path d="M2056 128 c3 -5 10 -6 15 -3 13 9 11 12 -6 12 -8 0 -12 -4 -9 -9z"/>
<path d="M3110 130 c-9 -6 -10 -10 -3 -10 6 0 15 5 18 10 8 12 4 12 -15 0z"/>
<path d="M2960 115 c-7 -9 -10 -18 -6 -22 3 -3 6 -1 6 5 0 7 5 12 11 12 5 0 7
-6 3 -12 -4 -7 -3 -9 1 -5 12 10 15 37 5 37 -4 0 -13 -7 -20 -15z"/>
<path d="M2836 113 c-13 -14 -5 -23 19 -21 14 1 25 3 25 5 0 7 -38 21 -44 16z"/>
<path d="M2423 81 c19 -26 20 -27 14 -8 -4 9 -2 17 3 17 6 0 10 -6 10 -12 0
-9 4 -8 10 2 9 14 11 13 14 -9 0 -5 6 -13 11 -18 6 -4 7 -4 2 1 -4 5 -1 17 7
25 14 15 10 16 -34 17 -43 0 -48 -2 -37 -15z"/>
<path d="M2630 90 c0 -5 5 -10 11 -10 5 0 7 5 4 10 -3 6 -8 10 -11 10 -2 0 -4
-4 -4 -10z"/>
<path d="M2390 70 c-9 -6 -10 -10 -3 -10 6 0 15 5 18 10 8 12 4 12 -15 0z"/>
</g>
</svg>
